# xmcd
#
# Track frame offsets:
#	150
#	16490
#	35604
#	54664
#	69752
#	90935
#	116252
#	132414
#	147402
#	164189
#	183217
#	198834
#
# Disc length: 2907 seconds
#
# Revision: 0
# Processed by: cddbd v1.5.2PL0 Copyright (c) Steve Scherf et al.
# Submitted via: audiograbber 1.83.01
#
DISCID=a10b590c
DTITLE=Dolly Parton - Backwoods Barbie
DYEAR=2008
DGENRE=Country
TTITLE0=Better Get To Livin
TTITLE1=Made of Stone
TTITLE2=Drives Me Crazy
TTITLE3=Backwoods Barbie
TTITLE4=Jesus and Gravity
TTITLE5=Only Dreamin'
TTITLE6=The Tracks of My Tears
TTITLE7=The Lonesomes
TTITLE8=Cologne
TTITLE9=Shinola
TTITLE10=I Will Forever Hate Roses
TTITLE11=Somebody's Everything
EXTD=
EXTT0=
EXTT1=
EXTT2=
EXTT3=
EXTT4=
EXTT5=
EXTT6=
EXTT7=
EXTT8=
EXTT9=
EXTT10=
EXTT11=
PLAYORDER=
